<svg width="60" height="39" viewBox="0 0 60 39" fill="none" xmlns="http://www.w3.org/2000/svg">
<path d="M58.8861 5.77925C57.8807 4.47566 56.3611 3.72788 54.7171 3.72788H49.2904C49.3127 3.14488 49.324 2.55894 49.324 1.97054C49.324 0.999993 48.5372 0.213196 47.5666 0.213196H1.75735C0.786802 0.213079 5.43737e-06 0.999993 5.43737e-06 1.97054C5.43737e-06 12.4211 3.55348 22.0798 9.495 28.3314H1.75735C1.14821 28.3314 0.582545 28.6468 0.262388 29.1648C-0.057768 29.6829 -0.0868305 30.3299 0.185396 30.8746C2.65126 35.8062 7.73391 38.9928 13.1344 38.9928H36.1924C41.591 38.9928 46.6725 35.8062 49.1384 30.8746C49.4107 30.3298 49.3816 29.6829 49.0614 29.1648C48.7412 28.6468 48.1755 28.3314 47.5664 28.3314H39.8288C40.8852 27.2199 41.8662 26.0008 42.7651 24.6885C46.511 24.2575 50.1798 22.737 53.182 20.3555C56.4613 17.7542 58.8189 14.2224 59.8205 10.4107C60.2466 8.78968 59.9059 7.1016 58.8861 5.77925ZM33.5075 13.2427V17.787H29.9927V13.2427L31.7501 11.4853L33.5075 13.2427ZM44.2493 31.8227C42.1845 34.0895 39.2538 35.478 36.1927 35.478H13.1345C10.0718 35.478 7.14012 34.0895 5.07493 31.8227H44.2493ZM34.5793 28.3313H14.7447C8.17336 23.3766 3.97782 14.1153 3.55079 3.72788H29.9927V8.27218L26.9927 11.2722C26.6632 11.6017 26.4779 12.0487 26.4779 12.5148V19.5443C26.4779 20.5149 27.2647 21.3017 28.2353 21.3017H35.2648C36.2353 21.3017 37.0221 20.5149 37.0221 19.5443V12.5148C37.0221 12.0488 36.8368 11.6018 36.5073 11.2722L33.5073 8.27218V3.70445H45.773C45.3932 12.9485 41.8392 22.8576 34.5793 28.3313ZM56.4212 9.5173C55.045 14.7549 50.5541 19.0397 45.1373 20.6332C47.1165 16.6465 48.4527 12.0869 49.0182 7.24269H54.7168C55.4643 7.24269 55.9061 7.67066 56.1027 7.92577C56.452 8.37847 56.568 8.95855 56.4212 9.5173Z" fill="#5AB963"/>
</svg>
