<svg width="60" height="60" viewBox="0 0 60 60" fill="none" xmlns="http://www.w3.org/2000/svg">
<path d="M54.7266 3.51562H52.7657V1.75781C52.7657 0.787031 51.9786 0 51.0079 0C50.0371 0 49.25 0.787031 49.25 1.75781V3.51562H38.586V1.75781C38.586 0.787031 37.7989 0 36.8282 0C35.8574 0 35.0704 0.787031 35.0704 1.75781V3.51562H24.5235V1.75781C24.5235 0.787031 23.7364 0 22.7657 0C21.7949 0 21.0079 0.787031 21.0079 1.75781V3.51562H10.3438V1.75781C10.3438 0.787031 9.55676 0 8.58598 0C7.6152 0 6.82816 0.787031 6.82816 1.75781V3.51562H5.27344C2.36566 3.51562 0 5.88129 0 8.78906C0 10.7246 0 52.2335 0 54.7266C0 57.6343 2.36566 60 5.27344 60H54.7266C57.6343 60 60 57.6343 60 54.7266C60 52.2335 60 10.7246 60 8.78906C60 5.88129 57.6343 3.51562 54.7266 3.51562ZM56.4844 54.7266C56.4844 55.6958 55.6958 56.4844 54.7266 56.4844H48.3375L56.4844 48.3375V54.7266ZM45.8516 53.9985V45.9375H53.9126L45.8516 53.9985ZM56.4844 42.4219H44.0938C43.123 42.4219 42.336 43.2089 42.336 44.1797V56.4844H5.27344C4.30418 56.4844 3.51562 55.6958 3.51562 54.7266V17.5781H56.4844V42.4219ZM56.4844 13.1373C56.4844 13.1893 56.4844 13.2052 56.4844 13.2029C56.4844 13.3037 56.4844 13.5424 56.4844 14.0624H3.51562C3.51562 12.4146 3.51562 13.4152 3.51562 8.78895C3.51562 7.81969 4.30418 7.03113 5.27344 7.03113H6.82816V8.78895C6.82816 9.75973 7.6152 10.5468 8.58598 10.5468C9.55676 10.5468 10.3438 9.75973 10.3438 8.78895V7.03125H21.0079V8.78906C21.0079 9.75984 21.7949 10.5469 22.7657 10.5469C23.7364 10.5469 24.5235 9.75984 24.5235 8.78906V7.03125H35.0704V8.78906C35.0704 9.75984 35.8574 10.5469 36.8282 10.5469C37.7989 10.5469 38.586 9.75984 38.586 8.78906V7.03125H49.25V8.78906C49.25 9.75984 50.0371 10.5469 51.0079 10.5469C51.9786 10.5469 52.7657 9.75984 52.7657 8.78906V7.03125H54.7266C55.6958 7.03125 56.4844 7.8198 56.4844 8.78906C56.4844 11.994 56.4844 12.9118 56.4844 13.1373Z" fill="#5AB963"/>
</svg>
