<svg width="60" height="36" viewBox="0 0 60 36" fill="none" xmlns="http://www.w3.org/2000/svg">
<path d="M58.2009 14.1959C59.9061 12.1102 60.4028 9.60982 59.6752 6.762C58.9692 3.99902 56.906 1.7743 54.1564 0.811121C51.3546 -0.170657 48.2754 0.289257 45.9202 2.04128C45.5525 2.31476 44.3202 3.20007 43.8778 3.37546C43.6488 3.46624 43.4502 3.60002 43.2866 3.76285C34.2382 8.93116 22.684 8.35781 14.1926 2.04116C13.7746 1.73025 13.333 1.46084 12.8741 1.2321C12.8645 1.22687 12.8544 1.22234 12.8447 1.21734C10.7111 0.163732 8.19962 0.00426653 5.86641 0.821466C3.09622 1.79197 1.02282 4.01274 0.320396 6.76188C-0.36058 9.42676 0.220084 12.1424 1.77833 14.2175C1.09653 15.1183 0.593209 16.1417 0.320396 17.2099C-0.412143 20.0767 0.113091 22.5938 1.88169 24.691C3.63176 26.7664 6.23895 28.0291 8.21145 29.2217C14.7761 33.1905 22.33 35.2883 30.0564 35.2883C42.9176 35.2883 50.799 29.8881 55.747 26.8967C59.0647 24.8911 60.6434 20.9983 59.6754 17.2099C59.4001 16.1332 58.8911 15.1021 58.2009 14.1959ZM53.9194 23.9231L50.0736 26.2482C37.7266 33.713 22.3862 33.713 10.0392 26.2482C6.12153 23.8797 2.60766 22.4361 3.72422 18.0656C3.8604 17.533 4.09629 17.0169 4.41364 16.5458C9.04067 19.2607 10.4408 20.1743 13.4653 21.4626L14.3223 23.5875C14.5969 24.2684 15.2562 24.6826 15.953 24.6826C16.17 24.6826 16.3906 24.6424 16.6044 24.5576C17.2692 24.2938 17.6807 23.672 17.706 23.0053C19.6869 23.6081 21.713 24.0657 23.7686 24.3729L24.8564 27.0702C25.2162 27.9626 26.2376 28.3975 27.1386 28.0402C28.0389 27.6831 28.4768 26.6697 28.1166 25.7768L27.7125 24.775C28.4915 24.818 29.273 24.8406 30.0564 24.8406C31.5128 24.8406 32.9631 24.7658 34.4017 24.6182L35.3905 27.0701C35.7506 27.9634 36.7726 28.3972 37.6726 28.0402C38.573 27.6831 39.0109 26.6697 38.6507 25.7768L37.9734 24.0975C40.4727 23.6238 42.9212 22.9256 45.2897 22.013L45.9246 23.5875C46.1992 24.2684 46.8584 24.6826 47.5553 24.6826C47.7723 24.6826 47.9929 24.6424 48.2066 24.5576C49.107 24.2004 49.5449 23.187 49.1847 22.294L48.5077 20.6155C50.8057 19.5013 54.5748 17.2287 55.5754 16.5359C55.8961 17.0095 56.1341 17.5291 56.2712 18.0655C56.8678 20.3995 55.9446 22.6987 53.9194 23.9231ZM50.0732 15.7998C38.2792 22.93 23.2488 23.593 10.0188 15.7879C5.38325 13.0681 5.87907 13.3892 5.27907 12.888C3.81961 11.5939 3.2127 9.619 3.72411 7.61767C4.14364 5.97595 5.35055 4.69581 7.03583 4.10549C8.24251 3.68277 9.52184 3.68509 10.669 4.08108L14.3222 13.1394C14.5968 13.8203 15.2561 14.2345 15.9529 14.2345C16.1699 14.2345 16.3904 14.1943 16.6043 14.1095C17.5045 13.7523 17.9425 12.7389 17.5822 11.846L15.6784 7.12533C17.7045 8.22717 19.8423 9.08435 22.0598 9.68816L24.8562 16.622C25.1307 17.3028 25.79 17.7171 26.4868 17.7171C26.7039 17.7171 26.9244 17.6769 27.1383 17.592C28.0385 17.2348 28.4765 16.2215 28.1162 15.3285L26.1703 10.5035C27.4487 10.6658 28.7454 10.7491 30.056 10.7491C31.0344 10.7491 32.0051 10.7022 32.9664 10.6116L35.3902 16.6217C35.6647 17.3026 36.324 17.7168 37.0208 17.7168C37.2379 17.7168 37.4584 17.6766 37.6721 17.5918C38.5725 17.2346 39.0104 16.2212 38.6502 15.3284L36.5259 10.0611C39.007 9.52393 41.3994 8.675 43.6617 7.5291L45.9243 13.1391C46.1988 13.8199 46.8581 14.2342 47.5549 14.2342C47.772 14.2342 47.9925 14.194 48.2064 14.1091C49.1066 13.752 49.5445 12.7386 49.1843 11.8456L46.723 5.74279C47.1638 5.44944 47.5988 5.14492 48.0264 4.82692C49.44 3.7754 51.2943 3.50169 52.9865 4.09445C54.6507 4.67745 55.8479 5.96154 56.271 7.61709C57.3875 11.9868 53.9823 13.4364 50.0732 15.7998Z" fill="#5AB963"/>
</svg>
